# xmcd
#
# Track frame offsets: 
#        150
#        10652
#        20509
#        30509
#        43746
#        57631
#        67303
#        81201
#        88654
#        101899
#        115361
#        132352
#        143085
#        155972
#
# Disc length: 2264 seconds
#
# Revision: 0
# Processed by: cddbd v1.5.2PL0 Copyright (c) Steve Scherf et al.
# Submitted via: ExactAudioCopy v0.99pb5
#
DISCID=ca08d60e
DTITLE=Tim Carroll - If I Could
DYEAR=2001
DGENRE=Alternative
TTITLE0=Open Flame
TTITLE1=She Does My Heart Good
TTITLE2=I Think Hank Woulda Done It This Way
TTITLE3=Good Rock from Bad
TTITLE4=Punk Rockin' Honky Tonk Girl
TTITLE5=If I Could, Then I Would
TTITLE6=Good Cry
TTITLE7=Grandpa
TTITLE8=Every Kind of Music But Country
TTITLE9=But Why
TTITLE10=Like a Number
TTITLE11=Too Rock'n'Roll
TTITLE12=New Dinosaur
TTITLE13=I'm in Pieces
EXTD=
EXTT0=
EXTT1=
EXTT2=
EXTT3=
EXTT4=
EXTT5=
EXTT6=
EXTT7=
EXTT8=
EXTT9=
EXTT10=
EXTT11=
EXTT12=
EXTT13=
PLAYORDER=
